<?xml version="1.0" encoding="UTF-8"?>
<svg id="Layer_1" xmlns="http://www.w3.org/2000/svg" xmlns:xlink="http://www.w3.org/1999/xlink" viewBox="0 0 375.79 360.25">
  <defs>
    <style>
      .cls-1 {
        fill: #231f20;
      }

      .cls-2 {
        fill: #fff200;
        stroke: #f7941d;
        stroke-miterlimit: 10;
        stroke-width: 10px;
      }
    </style>
    <symbol id="Habit-Spark-Symbol" viewBox="0 0 375.79 360.25">
      <g>
        <polygon class="cls-2" points="289.27 194.73 360.29 145.74 282.47 143.83 310.39 109.84 271.36 120.01 287.22 92.45 255.5 106.62 270.21 51.51 214.78 96.49 190.85 16.18 170.02 75.31 152.54 47.99 150.48 82.7 129.15 59.08 132.8 93.35 83.62 61.48 113.74 139.7 15.26 137.28 63.49 174.16 44.94 179 70.83 189.14 48.56 199.09 80.13 205.76 35.45 242.02 112.75 237.89 76.18 341.7 137.62 299.32 136.29 321.82 154.73 299.36 156.82 319.01 172.38 291.98 192.26 343.62 207.99 284.66 289.42 346.93 265.08 265.26 300.35 279.08 280.52 248.07 304.32 253.1 282.4 228.82 337.35 225.88 289.27 194.73"/>
        <path class="cls-1" d="M274.14,267.69c-3-1.78-7.51-2.67-13.52-2.67-7.67,0-16.28,1.35-25.85,4.05-9.81,2.7-18.49,6.25-26.03,10.67,4.78-24.96,7.17-43.81,7.17-56.56v-5.06c-6.38.8-21.74,2.48-46.08,5.06,1.1,17.6,4.84,36.12,11.22,55.55-14.72-6.62-29.59-9.93-44.61-9.93-9.08,0-15.54,1.56-19.41,4.69l.55-21.43c2.02-.92,4.48-1.38,7.36-1.38,4.72,0,9.63,1.2,14.72,3.59-4.48-11.77-7.97-29.8-10.48-54.08-1.96-19.37-2.94-37.95-2.94-55.74,0-4.6-1.96-7.66-5.89-9.2-.18-.12-4.11-.89-11.77-2.3-1.53-.24-2.3-2.76-2.3-7.54,0-.49.06-1.24.18-2.25.12-1.01.18-1.64.18-1.89,2.15.37,28.85,2.7,80.11,6.99-6.32,14.47-10.64,27.84-12.97,40.1-1.72,8.95-2.73,20.14-3.04,33.57,20.48,0,35.65.49,45.53,1.47.12-1.23.18-2.73.18-4.51,0-21.89-6.78-42.15-20.32-60.79,21.46-3.31,45.71-7.42,72.75-12.32.18,0,.47,1.2.87,3.59.4,2.39.6,4.66.6,6.81,0,2.7-.37,4.51-1.1,5.43-9.2,3.01-13.79,6.16-13.79,9.47,0-1.1.63,2.35,1.88,10.35,1.26,8,1.88,17.37,1.88,28.1,0,12.45-.89,24.11-2.67,35-1.78,10.88-4.02,18.35-6.71,22.4,4.84-3.13,9.87-4.69,15.08-4.69,2.58,0,4.75.31,6.53.92l2.67,24.56Z"/>
      </g>
    </symbol>
  </defs>
  <use width="375.79" height="360.25" xlink:href="#Habit-Spark-Symbol"/>
</svg>